<?xml version="1.0" encoding="UTF-8" standalone="no"?>
<svg
   xmlns:dc="http://purl.org/dc/elements/1.1/"
   xmlns:cc="http://creativecommons.org/ns#"
   xmlns:rdf="http://www.w3.org/1999/02/22-rdf-syntax-ns#"
   xmlns:svg="http://www.w3.org/2000/svg"
   xmlns="http://www.w3.org/2000/svg"
   viewBox="0 0 300 517.32594"
   version="1.1"
   id="svg27333"
   height="517.32593"
   width="300">
  <defs
     id="defs27335" />
  <metadata
     id="metadata27338">
    <rdf:RDF>
      <cc:Work
         rdf:about="">
        <dc:format>image/svg+xml</dc:format>
        <dc:type
           rdf:resource="http://purl.org/dc/dcmitype/StillImage" />
        <dc:title></dc:title>
      </cc:Work>
    </rdf:RDF>
  </metadata>
  <g
     transform="translate(340.20937,-112.70377)"
     id="layer1">
    <g
       id="g27114"
       transform="matrix(2.6484014,0,0,2.6484014,1262.4331,-1306.9513)">
      <path
         id="path9960"
         style="fill:#ef3e42;fill-opacity:1;fill-rule:nonzero;stroke:none"
         d="m -492.60078,713.1752 c 0,0 0.25125,2.64375 0.009,4.82125 0,0 -0.14875,2.33125 -1.19,3.52375 0,0 -5.08125,6.1475 -17.6225,6.5575 0,0 -12.47,0.905 -23.68875,-7.87 0,0 -2.54125,-2.13 -6.06625,-6.1475 0,0 -5.02875,-6.3875 -5.15625,-6.98 -0.1275,-0.59375 -0.0888,-2.855 -0.0888,-3.9225 0,0 7.1175,-1.875 14.67125,-0.81875 0,0 35.69,9.0325 39.1325,10.83625" />
      <path
         id="path9964"
         style="fill:none;stroke:#231f20;stroke-width:1.25;stroke-linecap:butt;stroke-linejoin:miter;stroke-miterlimit:4;stroke-dasharray:none;stroke-opacity:1"
         d="m -492.60078,713.1752 c 0,0 0.25125,2.64375 0.009,4.82125 0,0 -0.14875,2.33125 -1.19,3.52375 0,0 -5.08125,6.1475 -17.6225,6.5575 0,0 -12.47,0.905 -23.68875,-7.87 0,0 -2.54125,-2.13 -6.06625,-6.1475 0,0 -5.02875,-6.3875 -5.15625,-6.98 -0.1275,-0.59375 -0.0888,-2.855 -0.0888,-3.9225 0,0 7.1175,-1.875 14.67125,-0.81875 0,0 35.69,9.0325 39.1325,10.83625 z" />
      <path
         id="path9968"
         style="fill:#ffffff;fill-opacity:1;fill-rule:nonzero;stroke:none"
         d="m -546.73278,698.56832 c 0,0 0.3275,3.4425 0.3275,5.985 0,0 4.91875,7.04875 10.32875,11.1475 0,0 9.34375,7.78625 19.6725,8.27875 0,0 8.11375,1.31125 16.22875,-2.05 0,0 6.80375,-2.785 7.3775,-6.22875 0,0 2.45875,-7.05 -9.42625,-11.55875 0,0 -10.09875,-2.025 -25.91875,-2.025 0,0 -12.50125,-0.42125 -15.885,-3.7125 0,0 -2.295,-0.165 -2.705,0.16375" />
      <path
         id="path9972"
         style="fill:none;stroke:#231f20;stroke-width:1.25;stroke-linecap:butt;stroke-linejoin:miter;stroke-miterlimit:4;stroke-dasharray:none;stroke-opacity:1"
         d="m -546.73278,698.56832 c 0,0 0.3275,3.4425 0.3275,5.985 0,0 4.91875,7.04875 10.32875,11.1475 0,0 9.34375,7.78625 19.6725,8.27875 0,0 8.11375,1.31125 16.22875,-2.05 0,0 6.80375,-2.785 7.3775,-6.22875 0,0 2.45875,-7.05 -9.42625,-11.55875 0,0 -10.09875,-2.025 -25.91875,-2.025 0,0 -12.50125,-0.42125 -15.885,-3.7125 0,0 -2.295,-0.165 -2.705,0.16375 z" />
      <path
         id="path9976"
         style="fill:#ffffff;fill-opacity:1;fill-rule:nonzero;stroke:none"
         d="m -543.61815,699.7157 c 0,0 4.345,3.8525 16.8025,6.80375 0,0 6.8875,1.64 10.90375,3.8525 0,0 10.08125,5.41125 11.5575,12.86875 0,0 7.3775,-1.47375 10.90125,-6.06375 0,0 2.99625,-4.2425 -1.81125,-9.17 0,0 -4.0275,-3.84625 -13.35375,-5.6675 0,0 -5.22,-1.245 -12.90875,-1.72125 0,0 -4.57125,-0.26625 -7.9925,-0.16375 0,0 -8.0325,-0.0412 -13.60625,-1.68125 0,0 0.0812,0.6975 -0.4925,0.9425" />
      <path
         id="path9980"
         style="fill:none;stroke:#231f20;stroke-width:1.25;stroke-linecap:butt;stroke-linejoin:miter;stroke-miterlimit:4;stroke-dasharray:none;stroke-opacity:1"
         d="m -543.61815,699.7157 c 0,0 4.345,3.8525 16.8025,6.80375 0,0 6.8875,1.64 10.90375,3.8525 0,0 10.08125,5.41125 11.5575,12.86875 0,0 7.3775,-1.47375 10.90125,-6.06375 0,0 2.99625,-4.2425 -1.81125,-9.17 0,0 -4.0275,-3.84625 -13.35375,-5.6675 0,0 -5.22,-1.245 -12.90875,-1.72125 0,0 -4.57125,-0.26625 -7.9925,-0.16375 0,0 -8.0325,-0.0412 -13.60625,-1.68125 0,0 0.0812,0.6975 -0.4925,0.9425 z" />
      <path
         id="path9984"
         style="fill:#ef3e42;fill-opacity:1;fill-rule:nonzero;stroke:none"
         d="m -548.20803,688.48645 c 0,0 1.11125,6.32125 1.51375,10.4275 0,0 -0.0387,0.67875 1.355,0.885 0,0 0.82,0.16375 1.51625,-0.0838 0,0 0.82375,-0.2075 0.615,-1.68 0,0 -0.655,-8.36 -0.0412,-12.90875 0,0 -2.33625,-1.10625 -2.74625,-1.47625 0,0 -2.54,3.60875 -2.2125,4.83625" />
      <path
         id="path9988"
         style="fill:none;stroke:#231f20;stroke-width:1.25;stroke-linecap:butt;stroke-linejoin:miter;stroke-miterlimit:4;stroke-dasharray:none;stroke-opacity:1"
         d="m -548.20803,688.48645 c 0,0 1.11125,6.32125 1.51375,10.4275 0,0 -0.0387,0.67875 1.355,0.885 0,0 0.82,0.16375 1.51625,-0.0838 0,0 0.82375,-0.2075 0.615,-1.68 0,0 -0.655,-8.36 -0.0412,-12.90875 0,0 -2.33625,-1.10625 -2.74625,-1.47625 0,0 -2.54,3.60875 -2.2125,4.83625 z" />
      <path
         id="path9992"
         style="fill:#ef3e42;fill-opacity:1;fill-rule:nonzero;stroke:none"
         d="m -604.28465,715.60682 c 0,0 -0.61,1.82875 0.17375,6.56875 0,0 0.2875,1.1075 0.9025,1.72125 0,0 1.22875,1.63875 3.8525,3.115 0,0 6.31125,4.26125 18.36,3.6875 0,0 10.32875,-0.32625 18.85375,-9.5075 0,0 6.865,-8.7725 8.8525,-15.49125 0.17625,-0.59625 -0.32875,-2.91 -0.41,-3.44375 0,0 -13.525,13.03375 -21.7225,15.4925 0,0 -22.63375,-3.29 -28.8625,-2.1425" />
      <path
         id="path9996"
         style="fill:none;stroke:#231f20;stroke-width:1.25;stroke-linecap:butt;stroke-linejoin:miter;stroke-miterlimit:4;stroke-dasharray:none;stroke-opacity:1"
         d="m -604.28465,715.60682 c 0,0 -0.61,1.82875 0.17375,6.56875 0,0 0.2875,1.1075 0.9025,1.72125 0,0 1.22875,1.63875 3.8525,3.115 0,0 6.31125,4.26125 18.36,3.6875 0,0 10.32875,-0.32625 18.85375,-9.5075 0,0 6.865,-8.7725 8.8525,-15.49125 0.17625,-0.59625 -0.32875,-2.91 -0.41,-3.44375 0,0 -13.525,13.03375 -21.7225,15.4925 0,0 -22.63375,-3.29 -28.8625,-2.1425 z" />
      <path
         id="path10000"
         style="fill:#ffffff;fill-opacity:1;fill-rule:nonzero;stroke:none"
         d="m -556.81465,698.19957 c 0,0 -5.7375,2.41875 -12.00875,3.31875 0,0 -8.565,1.3125 -16.10625,1.64 0,0 -13.21875,0.74625 -18.115,9.26375 0,0 -3.68875,5.41 1.065,8.525 0,0 6.475,5.08125 17.87,5.16375 0,0 12.7875,-0.165 19.67125,-7.2125 0,0 4.80125,-4.12125 10.82,-15.575 0,0 -0.36875,-3.11625 -0.36875,-5.04125 0,0 -1.885,-0.4925 -2.8275,-0.0825" />
      <path
         id="path10004"
         style="fill:none;stroke:#231f20;stroke-width:1.25;stroke-linecap:butt;stroke-linejoin:miter;stroke-miterlimit:4;stroke-dasharray:none;stroke-opacity:1"
         d="m -556.81465,698.19957 c 0,0 -5.7375,2.41875 -12.00875,3.31875 0,0 -8.565,1.3125 -16.10625,1.64 0,0 -13.21875,0.74625 -18.115,9.26375 0,0 -3.68875,5.41 1.065,8.525 0,0 6.475,5.08125 17.87,5.16375 0,0 12.7875,-0.165 19.67125,-7.2125 0,0 4.80125,-4.12125 10.82,-15.575 0,0 -0.36875,-3.11625 -0.36875,-5.04125 0,0 -1.885,-0.4925 -2.8275,-0.0825 z" />
      <path
         id="path10008"
         style="fill:#ffffff;fill-opacity:1;fill-rule:nonzero;stroke:none"
         d="m -557.47078,698.48645 c 0,0 -6.23,2.86875 -19.5075,4.09875 0,0 -7.3775,0.65625 -12.21375,2.7875 0,0 -11.1475,4.01625 -12.7875,15.575 0,0 6.475,4.7525 16.47625,5.08 0,0 -0.9425,-8.81125 7.78625,-14.67125 0,0 3.8125,-2.82875 8.60625,-4.83625 0,0 10.20625,-4.59 12.29625,-6.9675 0,0 -0.82,-0.0825 -0.65625,-1.06625" />
      <path
         id="path10012"
         style="fill:none;stroke:#231f20;stroke-width:1.25;stroke-linecap:butt;stroke-linejoin:miter;stroke-miterlimit:4;stroke-dasharray:none;stroke-opacity:1"
         d="m -557.47078,698.48645 c 0,0 -6.23,2.86875 -19.5075,4.09875 0,0 -7.3775,0.65625 -12.21375,2.7875 0,0 -11.1475,4.01625 -12.7875,15.575 0,0 6.475,4.7525 16.47625,5.08 0,0 -0.9425,-8.81125 7.78625,-14.67125 0,0 3.8125,-2.82875 8.60625,-4.83625 0,0 10.20625,-4.59 12.29625,-6.9675 0,0 -0.82,-0.0825 -0.65625,-1.06625 z" />
      <path
         id="path10016"
         style="fill:#ef3e42;fill-opacity:1;fill-rule:nonzero;stroke:none"
         d="m -556.56928,687.91395 c 0,0 -0.77875,8.565 -0.9425,10.98125 0,0 0.1225,0.615 1.31125,0.94375 0,0 1.06625,0.24625 1.68125,-0.04 0,0 0.40875,-0.10875 0.5725,-1.13 0,0 1.27125,-9.93625 1.3525,-10.305 0,0 -2.25375,-1.27 -3.975,-0.45" />
      <path
         id="path10020"
         style="fill:none;stroke:#231f20;stroke-width:1.25;stroke-linecap:butt;stroke-linejoin:miter;stroke-miterlimit:4;stroke-dasharray:none;stroke-opacity:1"
         d="m -556.56928,687.91395 c 0,0 -0.77875,8.565 -0.9425,10.98125 0,0 0.1225,0.615 1.31125,0.94375 0,0 1.06625,0.24625 1.68125,-0.04 0,0 0.40875,-0.10875 0.5725,-1.13 0,0 1.27125,-9.93625 1.3525,-10.305 0,0 -2.25375,-1.27 -3.975,-0.45 z" />
      <path
         id="path10024"
         style="fill:#59ad40;fill-opacity:1;fill-rule:nonzero;stroke:none"
         d="m -529.10103,660.6422 c 3.22875,1.615 5.15625,3.255 5.15625,3.255 7.705,6.88375 6.22875,13.23625 6.22875,13.23625 -0.7375,-0.41 -3.77125,-1.43375 -3.77125,-1.43375 0,1.5575 -0.3275,5.08125 -0.3275,5.08125 -8.19625,6.23125 -18.68875,8.03375 -18.68875,8.03375 -1.27625,-0.9375 -2.78625,-2.705 -2.78625,-2.705 0,1.06625 0.04,2.58125 0.04,2.58125 -16.1475,2.86875 -26.80375,-3.2775 -26.80375,-3.2775 -0.0812,-0.7375 -0.12125,-2.99125 -0.12125,-2.99125 -0.9025,0.40875 -4.1,1.72 -4.1,1.72 -2.78625,-1.80375 -5,-4.835 -5,-4.835 -0.49125,-0.82 -1.475,-7.21375 -1.475,-7.21375 0,-8.85375 10.16375,-15.00125 10.16375,-15.00125 7.295,-2.54125 19.345,-1.72125 19.345,-1.72125 2.3775,0 7.7875,0.81875 7.7875,0.81875 5.01,0.6 9.3225,2.1125 12.6075,3.64 l 0.0563,1.81125 1.68875,-0.99875 z" />
      <path
         id="path10028"
         style="fill:none;stroke:#231f20;stroke-width:1.25;stroke-linecap:butt;stroke-linejoin:miter;stroke-miterlimit:4;stroke-dasharray:none;stroke-opacity:1"
         d="m -529.10103,660.6422 c 3.22875,1.615 5.15625,3.255 5.15625,3.255 7.705,6.88375 6.22875,13.23625 6.22875,13.23625 -0.7375,-0.41 -3.77125,-1.43375 -3.77125,-1.43375 0,1.5575 -0.3275,5.08125 -0.3275,5.08125 -8.19625,6.23125 -18.68875,8.03375 -18.68875,8.03375 -1.27625,-0.9375 -2.78625,-2.705 -2.78625,-2.705 0,1.06625 0.04,2.58125 0.04,2.58125 -16.1475,2.86875 -26.80375,-3.2775 -26.80375,-3.2775 -0.0812,-0.7375 -0.12125,-2.99125 -0.12125,-2.99125 -0.9025,0.40875 -4.1,1.72 -4.1,1.72 -2.78625,-1.80375 -5,-4.835 -5,-4.835 -0.49125,-0.82 -1.475,-7.21375 -1.475,-7.21375 0,-8.85375 10.16375,-15.00125 10.16375,-15.00125 7.295,-2.54125 19.345,-1.72125 19.345,-1.72125 2.3775,0 7.7875,0.81875 7.7875,0.81875 5.01,0.6 9.3225,2.1125 12.6075,3.64 l 0.0563,1.81125 1.68875,-0.99875 z" />
      <path
         id="path10032"
         style="fill:#e4412b;fill-opacity:1;fill-rule:nonzero;stroke:none"
         d="m -542.22478,670.78145 c 0,0 2.82875,-9.4675 1.55875,-19.22125 0,0 10.9825,5.5325 17.37625,10.61375 0,0 1.88625,-2.78625 1.88625,-3.60625 0,0 -10.9025,-9.01625 -19.345,-18.36 0,0 -3.97625,-4.8775 -6.5175,-2.745 0,0 0.205,-4.63125 0.36875,-6.1075 0,0 -5.655,-0.16375 -6.1475,0.98375 0,0 0.53375,2.04875 0.69625,4.79625 0,0 -1.55625,-1.55875 -4.87625,1.76 0,0 -13.52375,12.78875 -20.98375,20.32875 0,0 0.82,2.78625 2.705,3.03375 0,0 9.18,-8.60625 16.23,-11.5575 0,0 -1.59875,8.6875 3.32,21.475 0,0 0.40875,0.90125 1.68,1.23 0,0 4.05625,1.7625 10.16375,-0.2875 0,0 1.18875,-0.36875 1.3525,-0.81875 0,0 0.36875,-0.74 0.5325,-1.5175" />
      <path
         id="path10036"
         style="fill:none;stroke:#231f20;stroke-width:1.25;stroke-linecap:butt;stroke-linejoin:miter;stroke-miterlimit:4;stroke-dasharray:none;stroke-opacity:1"
         d="m -542.22478,670.78145 c 0,0 2.82875,-9.4675 1.55875,-19.22125 0,0 10.9825,5.5325 17.37625,10.61375 0,0 1.88625,-2.78625 1.88625,-3.60625 0,0 -10.9025,-9.01625 -19.345,-18.36 0,0 -3.97625,-4.8775 -6.5175,-2.745 0,0 0.205,-4.63125 0.36875,-6.1075 0,0 -5.655,-0.16375 -6.1475,0.98375 0,0 0.53375,2.04875 0.69625,4.79625 0,0 -1.55625,-1.55875 -4.87625,1.76 0,0 -13.52375,12.78875 -20.98375,20.32875 0,0 0.82,2.78625 2.705,3.03375 0,0 9.18,-8.60625 16.23,-11.5575 0,0 -1.59875,8.6875 3.32,21.475 0,0 0.40875,0.90125 1.68,1.23 0,0 4.05625,1.7625 10.16375,-0.2875 0,0 1.18875,-0.36875 1.3525,-0.81875 0,0 0.36875,-0.74 0.5325,-1.5175 z" />
      <path
         id="path10040"
         style="fill:#ffe86e;fill-opacity:1;fill-rule:nonzero;stroke:none"
         d="m -537.83878,555.20645 c 0.12125,-0.015 2.73375,-9.12125 4.0575,-11.22875 0,0 -1.5575,-0.9025 -2.86875,-1.19 0,0 0.32625,-0.81875 0.5325,-1.18875 0,0 -1.31125,-0.86 -3.525,-1.18875 0,0 0.28625,-1.06375 0.36875,-1.31125 0,0 -5.28625,-2.0475 -10.28625,-1.27 0,0 0.04,-0.615 0.04,-0.82 0,0 -6.80375,-1.39375 -11.885,1.5575 0,0 0.16375,0.86125 0.16375,1.1475 0,0 -1.5575,0.20625 -2.91,0.69625 0,0 -0.125,-0.32125 -0.24625,-0.69625 0,0 -4.75375,2.05 -6.1875,5.73875 0,0 2.45875,4.835 3.77,9.9175 0,0 23.68875,0.49125 28.97625,-0.16375" />
      <path
         id="path10044"
         style="fill:none;stroke:#231f20;stroke-width:1.25;stroke-linecap:butt;stroke-linejoin:miter;stroke-miterlimit:4;stroke-dasharray:none;stroke-opacity:1"
         d="m -537.83878,555.20645 c 0.12125,-0.015 2.73375,-9.12125 4.0575,-11.22875 0,0 -1.5575,-0.9025 -2.86875,-1.19 0,0 0.32625,-0.81875 0.5325,-1.18875 0,0 -1.31125,-0.86 -3.525,-1.18875 0,0 0.28625,-1.06375 0.36875,-1.31125 0,0 -5.28625,-2.0475 -10.28625,-1.27 0,0 0.04,-0.615 0.04,-0.82 0,0 -6.80375,-1.39375 -11.885,1.5575 0,0 0.16375,0.86125 0.16375,1.1475 0,0 -1.5575,0.20625 -2.91,0.69625 0,0 -0.125,-0.32125 -0.24625,-0.69625 0,0 -4.75375,2.05 -6.1875,5.73875 0,0 2.45875,4.835 3.77,9.9175 0,0 23.68875,0.49125 28.97625,-0.16375 z" />
      <path
         id="path10048"
         style="fill:#e8ae10;fill-opacity:1;fill-rule:nonzero;stroke:none"
         d="m -539.9299,567.91157 c 0,0 3.1975,-6.3525 3.77125,-7.91 0,0 0.69625,-1.10625 0.49125,-3.73 0,0 0,-1.22875 -3.36125,-2.4175 0,0 -14.26125,-4.71375 -28.0725,0.205 0,0 -0.82,0.245 -1.5175,1.8025 0,0 -0.5325,1.06625 -0.81875,2.5425 0,0 -0.165,0.9 0.41,1.9675 0,0 2.78625,5.32625 4.99875,8.195 0,0 20.0825,1.64 24.09875,-0.655" />
      <path
         id="path10052"
         style="fill:none;stroke:#231f20;stroke-width:1.25;stroke-linecap:butt;stroke-linejoin:miter;stroke-miterlimit:4;stroke-dasharray:none;stroke-opacity:1"
         d="m -539.9299,567.91157 c 0,0 3.1975,-6.3525 3.77125,-7.91 0,0 0.69625,-1.10625 0.49125,-3.73 0,0 0,-1.22875 -3.36125,-2.4175 0,0 -14.26125,-4.71375 -28.0725,0.205 0,0 -0.82,0.245 -1.5175,1.8025 0,0 -0.5325,1.06625 -0.81875,2.5425 0,0 -0.165,0.9 0.41,1.9675 0,0 2.78625,5.32625 4.99875,8.195 0,0 20.0825,1.64 24.09875,-0.655 z" />
      <path
         id="path10056"
         style="fill:#e8ae10;fill-opacity:1;fill-rule:nonzero;stroke:none"
         d="m -549.23215,566.4357 c 0,0 -0.0412,-2.09 -0.0412,-3.2375 0,0 0.1225,-1.84375 -1.10625,-2.1725 0,0 -1.56375,-0.6975 -3.07375,0.12375 0,0 -0.86125,0.41 -0.73875,2.08875 0,0 -0.04,2.91125 0,3.44375 0,0 3.77125,1.025 4.96,-0.24625" />
      <path
         id="path10060"
         style="fill:none;stroke:#231f20;stroke-width:1.25;stroke-linecap:butt;stroke-linejoin:miter;stroke-miterlimit:4;stroke-dasharray:none;stroke-opacity:1"
         d="m -549.23215,566.4357 c 0,0 -0.0412,-2.09 -0.0412,-3.2375 0,0 0.1225,-1.84375 -1.10625,-2.1725 0,0 -1.56375,-0.6975 -3.07375,0.12375 0,0 -0.86125,0.41 -0.73875,2.08875 0,0 -0.04,2.91125 0,3.44375 0,0 3.77125,1.025 4.96,-0.24625 z" />
      <path
         id="path10064"
         style="fill:#59ad40;fill-opacity:1;fill-rule:nonzero;stroke:none"
         d="m -519.92865,585.1247 c 0,0 -7.1325,-20.0825 -32.62375,-19.755 0,0 -23.68875,-1.1475 -31.885,23.1975 0,0 35,-11.22875 64.50875,-3.4425" />
      <path
         id="path10068"
         style="fill:none;stroke:#231f20;stroke-width:1.25;stroke-linecap:butt;stroke-linejoin:miter;stroke-miterlimit:4;stroke-dasharray:none;stroke-opacity:1"
         d="m -519.92865,585.1247 c 0,0 -7.1325,-20.0825 -32.62375,-19.755 0,0 -23.68875,-1.1475 -31.885,23.1975 0,0 35,-11.22875 64.50875,-3.4425 z" />
      <path
         id="path10072"
         style="fill:#59ad40;fill-opacity:1;fill-rule:nonzero;stroke:none"
         d="m -522.71615,615.08445 c 0,0 6.23,-0.7775 7.00875,-3.8525 0,0 0.45125,-0.615 0.16375,-2.25375 0,0 1.025,-8.1975 0.205,-16.395 0,0 -0.45,-2.54 -2.87,-5.655 0,0 -10.81875,-17.05 -35.57375,-16.23 0,0 -22.13125,0 -32.45875,20.205 0,0 -1.1475,1.64 -1.1475,4.71375 0,0 -0.25,5.49125 1.59875,13.935 0,0 -0.86125,3.11375 3.77,4.71375 0,0 1.3925,0.40875 2.37625,0.5325 0,0 1.47625,0.28625 2.5825,0.41 0,0 1.47625,8.195 -7.37625,12.70375 0,0 4.58875,8.27875 6.8025,10.90125 l 3.115,0 c 0,0 7.13125,-6.47375 13.68875,-8.77 0,0 19.83625,-4.755 25.57375,-1.47625 0,0 5.57375,6.23125 7.2125,9.59125 0,0 1.80375,-0.0812 3.03375,-0.0812 0,0 6.22875,-8.03375 8.4425,-10.73875 0,0 -6.31125,-3.77 -6.1475,-12.25375" />
      <path
         id="path10076"
         style="fill:none;stroke:#231f20;stroke-width:1.25;stroke-linecap:butt;stroke-linejoin:miter;stroke-miterlimit:4;stroke-dasharray:none;stroke-opacity:1"
         d="m -522.71615,615.08445 c 0,0 6.23,-0.7775 7.00875,-3.8525 0,0 0.45125,-0.615 0.16375,-2.25375 0,0 1.025,-8.1975 0.205,-16.395 0,0 -0.45,-2.54 -2.87,-5.655 0,0 -10.81875,-17.05 -35.57375,-16.23 0,0 -22.13125,0 -32.45875,20.205 0,0 -1.1475,1.64 -1.1475,4.71375 0,0 -0.25,5.49125 1.59875,13.935 0,0 -0.86125,3.11375 3.77,4.71375 0,0 1.3925,0.40875 2.37625,0.5325 0,0 1.47625,0.28625 2.5825,0.41 0,0 1.47625,8.195 -7.37625,12.70375 0,0 4.58875,8.27875 6.8025,10.90125 l 3.115,0 c 0,0 7.13125,-6.47375 13.68875,-8.77 0,0 19.83625,-4.755 25.57375,-1.47625 0,0 5.57375,6.23125 7.2125,9.59125 0,0 1.80375,-0.0812 3.03375,-0.0812 0,0 6.22875,-8.03375 8.4425,-10.73875 0,0 -6.31125,-3.77 -6.1475,-12.25375 z" />
      <path
         id="path10080"
         style="fill:#231f20;fill-opacity:1;fill-rule:nonzero;stroke:none"
         d="m -522.63365,604.30557 c 0,0 0.49125,27.54125 -27.05,28.525 0,0 -28.36125,2.45875 -27.21375,-31.475 0,0 5.575,-7.5425 25.98375,-8.44375 0,0 17.46,-0.73875 28.28,11.39375" />
      <path
         id="path10084"
         style="fill:none;stroke:#231f20;stroke-width:1.25;stroke-linecap:butt;stroke-linejoin:miter;stroke-miterlimit:4;stroke-dasharray:none;stroke-opacity:1"
         d="m -522.63365,604.30557 c 0,0 0.49125,27.54125 -27.05,28.525 0,0 -28.36125,2.45875 -27.21375,-31.475 0,0 5.575,-7.5425 25.98375,-8.44375 0,0 17.46,-0.73875 28.28,11.39375 z" />
      <path
         id="path10088"
         style="fill:none;stroke:#231f20;stroke-width:1.25;stroke-linecap:butt;stroke-linejoin:miter;stroke-miterlimit:4;stroke-dasharray:none;stroke-opacity:1"
         d="m -522.63365,604.30557 c 0,0 4.14,4.6725 3.31875,6.31125 0,0 -0.49125,1.39375 -2.95125,1.5975" />
      <path
         id="path10092"
         style="fill:none;stroke:#231f20;stroke-width:1.25;stroke-linecap:butt;stroke-linejoin:miter;stroke-miterlimit:4;stroke-dasharray:none;stroke-opacity:1"
         d="m -576.89703,601.3552 c 0,0 -2.705,2.6225 -4.385,5.86 0,0 -1.39375,2.5825 -0.205,3.975 0,0 0.7775,1.39375 3.975,1.47625" />
      <path
         id="path10096"
         style="fill:none;stroke:#231f20;stroke-width:1.25;stroke-linecap:butt;stroke-linejoin:miter;stroke-miterlimit:4;stroke-dasharray:none;stroke-opacity:1"
         d="m -580.46265,605.8632 c 0,0 2.705,3.69375 3.40125,9.345" />
      <path
         id="path10100"
         style="fill:none;stroke:#231f20;stroke-width:1.25;stroke-linecap:butt;stroke-linejoin:miter;stroke-miterlimit:4;stroke-dasharray:none;stroke-opacity:1"
         d="m -574.6839,617.29758 c 0,0 0.3275,6.02375 -6.31125,10.45 0,0 4.835,8.3625 6.475,11.06625" />
      <path
         id="path10104"
         style="fill:none;stroke:#231f20;stroke-width:1.25;stroke-linecap:butt;stroke-linejoin:miter;stroke-miterlimit:4;stroke-dasharray:none;stroke-opacity:1"
         d="m -584.4379,627.91157 c 0,0 2.66375,-0.16375 3.4425,-0.16375" />
      <path
         id="path10108"
         style="fill:none;stroke:#231f20;stroke-width:1.25;stroke-linecap:butt;stroke-linejoin:miter;stroke-miterlimit:4;stroke-dasharray:none;stroke-opacity:1"
         d="m -585.7904,609.5522 c 0,0 1.31125,-7.46125 10.5325,-13.6075 0,0 8.77125,-6.9675 24.4275,-6.88625 0,0 21.475,-0.98375 33.60625,16.23125 0,0 1.51625,1.885 1.68,3.8525" />
      <path
         id="path10112"
         style="fill:none;stroke:#231f20;stroke-width:1.25;stroke-linecap:butt;stroke-linejoin:miter;stroke-miterlimit:4;stroke-dasharray:none;stroke-opacity:1"
         d="m -525.99491,618.56832 c 0,0 1.10625,5.08 5.16375,8.56625 0,0 -5.73875,8.815 -7.1325,10.8225" />
      <path
         id="path10116"
         style="fill:none;stroke:#231f20;stroke-width:1.25;stroke-linecap:butt;stroke-linejoin:miter;stroke-miterlimit:4;stroke-dasharray:none;stroke-opacity:1"
         d="m -516.56803,627.33783 c 0,0 -2.91,-0.20375 -4.2625,-0.20375" />
      <path
         id="path10120"
         style="fill:none;stroke:#231f20;stroke-width:1.25;stroke-linecap:butt;stroke-linejoin:miter;stroke-miterlimit:4;stroke-dasharray:none;stroke-opacity:1"
         d="m -522.71615,615.2492 c 0,0 0.3275,-5.77875 1.845,-8.56625" />
      <path
         id="path10124"
         style="fill:none;stroke:#231f20;stroke-width:1.25;stroke-linecap:butt;stroke-linejoin:miter;stroke-miterlimit:4;stroke-dasharray:none;stroke-opacity:1"
         d="m -536.15915,560.00132 c 0,0 -1.9675,-3.8525 -16.64,-3.68875 0,0 -12.37625,0.3275 -16.515,3.075" />
      <path
         id="path10128"
         style="fill:#231f20;fill-opacity:1;fill-rule:nonzero;stroke:none"
         d="m -536.58753,541.63595 c 0,0 -1.45625,3.6525 -2.27625,5.62 0,0 1.10625,-1.7625 2.3775,-4.13875 0,0 0.0225,-1.5625 -0.10125,-1.48125" />
      <path
         id="path10132"
         style="fill:#231f20;fill-opacity:1;fill-rule:nonzero;stroke:none"
         d="m -539.92315,540.1027 c -0.375,1.2025 -0.9575,2.98875 -1.605,5.96375 0.465,-0.93125 0.7825,-1.48125 2.17625,-5.4975 0,0 -0.23125,-1.5525 -0.57125,-0.46625" />
      <path
         id="path10136"
         style="fill:#231f20;fill-opacity:1;fill-rule:nonzero;stroke:none"
         d="m -549.90415,537.24383 c -0.13,1.33375 -0.16375,4.82125 -0.1225,6.665 0,0 0.445,-1.61625 0.7725,-6.11875 0,0 -0.37,-0.73875 -0.65,-0.54625" />
      <path
         id="path10140"
         style="fill:#231f20;fill-opacity:1;fill-rule:nonzero;stroke:none"
         d="m -560.9839,538.66232 c 0,0 0.52125,4.78125 0.685,5.92875 0,0 -0.67,-1.35375 -1.23,-4.795 0,0 0.4225,-1.29875 0.545,-1.13375" />
      <path
         id="path10144"
         style="fill:#231f20;fill-opacity:1;fill-rule:nonzero;stroke:none"
         d="m -564.62278,540.15395 c 0,0 1.70125,5.13375 2.48,6.77375 0,0 -0.54625,-2.355 -1.735,-6.6575 0,0 -0.745,-0.40375 -0.745,-0.11625" />
      <path
         id="path10148"
         style="fill:#ffffff;fill-opacity:1;fill-rule:nonzero;stroke:none"
         d="m -566.15915,595.45307 c 0,0 -1.31125,6.96625 0.0812,15.24625 0,0 2.13125,13.4425 8.6075,13.0325 0,0 5.65625,0 5.57375,-15.98375 0,0 -0.16375,-9.59 -2.54125,-14.59125 0,0 -5.98375,0.16375 -11.72125,2.29625" />
      <path
         id="path10152"
         style="fill:none;stroke:#231f20;stroke-width:1.25;stroke-linecap:butt;stroke-linejoin:miter;stroke-miterlimit:4;stroke-dasharray:none;stroke-opacity:1"
         d="m -566.15915,595.45307 c 0,0 -1.31125,6.96625 0.0812,15.24625 0,0 2.13125,13.4425 8.6075,13.0325 0,0 5.65625,0 5.57375,-15.98375 0,0 -0.16375,-9.59 -2.54125,-14.59125 0,0 -5.98375,0.16375 -11.72125,2.29625 z" />
      <path
         id="path10156"
         style="fill:#ffffff;fill-opacity:1;fill-rule:nonzero;stroke:none"
         d="m -546.73278,593.15695 c 0,0 -2.21375,5.16375 -2.04875,15.00125 0,0 -0.0825,14.0975 5.49125,14.755 0,0 6.23,1.13625 7.95125,-13.19875 0,0 1.3125,-8.60625 -0.16375,-14.01625 0,0 -6.065,-2.3775 -11.23,-2.54125" />
      <path
         id="path10160"
         style="fill:none;stroke:#231f20;stroke-width:1.25;stroke-linecap:butt;stroke-linejoin:miter;stroke-miterlimit:4;stroke-dasharray:none;stroke-opacity:1"
         d="m -546.73278,593.15695 c 0,0 -2.21375,5.16375 -2.04875,15.00125 0,0 -0.0825,14.0975 5.49125,14.755 0,0 6.23,1.13625 7.95125,-13.19875 0,0 1.3125,-8.60625 -0.16375,-14.01625 0,0 -6.065,-2.3775 -11.23,-2.54125 z" />
      <path
         id="path10164"
         style="fill:#231f20;fill-opacity:1;fill-rule:nonzero;stroke:none"
         d="m -551.83903,637.70407 c 0,0 0.0625,0.775 0.0625,1.26625 0,0 -0.8175,-0.68875 -1.0225,-1.96 0,0 0.8375,0.16125 0.96,0.69375" />
      <path
         id="path10168"
         style="fill:#231f20;fill-opacity:1;fill-rule:nonzero;stroke:none"
         d="m -547.73378,637.8542 c 0,0 -0.12625,1.01125 -0.0437,1.50375 0,0 0.7175,-0.5025 1.085,-2.18375 0,0 -1,0.1875 -1.04125,0.68" />
      <path
         id="path10172"
         style="fill:#231f20;fill-opacity:1;fill-rule:nonzero;stroke:none"
         d="m -558.84953,651.01095 c 0,0 0.985,-6.4 3.75125,-9.65875 0,0 -3.40125,2.6075 -4.585,9.22375 0,0 0.29125,0.62 0.83375,0.435" />
      <path
         id="path10176"
         style="fill:#231f20;fill-opacity:1;fill-rule:nonzero;stroke:none"
         d="m -541.11878,651.60295 c 0,0 -0.8575,-6.09625 -3.12,-8.62 0,0 2.95625,1.40625 4.0225,8.5775 0,0 -0.73875,0.33 -0.9025,0.0425" />
      <path
         id="path10180"
         style="fill:#ffffff;fill-opacity:1;fill-rule:nonzero;stroke:none"
         d="m -582.55315,660.9462 c 0,0 0.86,-2.42 3.27875,-2.625 0,0 1.72125,-0.12125 3.075,1.39375 0,0 1.925,1.845 0.94125,3.975 0,0 -0.655,1.845 -2.45875,1.805 0,0 -3.0325,-4.345 -4.83625,-4.54875" />
      <path
         id="path10184"
         style="fill:none;stroke:#231f20;stroke-width:1.25;stroke-linecap:butt;stroke-linejoin:miter;stroke-miterlimit:4;stroke-dasharray:none;stroke-opacity:1"
         d="m -582.55315,660.9462 c 0,0 0.86,-2.42 3.27875,-2.625 0,0 1.72125,-0.12125 3.075,1.39375 0,0 1.925,1.845 0.94125,3.975 0,0 -0.655,1.845 -2.45875,1.805 0,0 -3.0325,-4.345 -4.83625,-4.54875 z" />
      <path
         id="path10188"
         style="fill:#ffffff;fill-opacity:1;fill-rule:nonzero;stroke:none"
         d="m -516.93665,659.92083 c 10e-4,-0.0412 -2.70625,-3.4425 -5.985,-0.1225 0,0 -1.31125,1.31125 -1.515,2.8675 0,0 -0.575,2.21375 2.6625,3.85375 0,0 4.67375,-2.74625 4.8375,-6.59875" />
      <path
         id="path10192"
         style="fill:none;stroke:#231f20;stroke-width:1.25;stroke-linecap:butt;stroke-linejoin:miter;stroke-miterlimit:4;stroke-dasharray:none;stroke-opacity:1"
         d="m -516.93665,659.92083 c 10e-4,-0.0412 -2.70625,-3.4425 -5.985,-0.1225 0,0 -1.31125,1.31125 -1.515,2.8675 0,0 -0.575,2.21375 2.6625,3.85375 0,0 4.67375,-2.74625 4.8375,-6.59875 z" />
      <path
         id="path10196"
         style="fill:#ffffff;fill-opacity:1;fill-rule:nonzero;stroke:none"
         d="m -509.68328,655.20645 c 0,0 -1.1775,3.14125 -6.3925,3.7725 0,0 -4.41875,0.1875 -6.06625,3.35875 0,0 -2.45875,3.32 1.31125,11.23 0,0 3.19625,6.22125 4.01625,14.34625 0,0 0.4925,5.08 0.65625,6.30875 0,0 0.20375,4.30625 1.9675,4.51 0,0 0.9,0.18375 1.3925,-0.655 0,0 0.57375,2.08875 2.21375,2.13 0,0 1.68,0.32875 2.8275,-2.58 0,0 1.93875,1.08875 2.91,-3.075 0,0 3.525,-13.89375 -0.9825,-24.1 0,0 -0.61625,-1.47375 -0.9025,-2.54 0,0 -0.86125,-2.4525 -0.6975,-5.16375 0,0 1.28625,-1.18375 3.15625,-2.46 0,0 3.35875,-2.11 2.46,-6.72125 0,0 -1.025,-5.45 -3.93625,-4.9175 0,0 -1.5975,0.20625 -2.4175,2.95125 0,0 -0.81875,2.4175 -1.51625,3.605" />
      <path
         id="path10200"
         style="fill:none;stroke:#231f20;stroke-width:1.25;stroke-linecap:butt;stroke-linejoin:miter;stroke-miterlimit:4;stroke-dasharray:none;stroke-opacity:1"
         d="m -509.68328,655.20645 c 0,0 -1.1775,3.14125 -6.3925,3.7725 0,0 -4.41875,0.1875 -6.06625,3.35875 0,0 -2.45875,3.32 1.31125,11.23 0,0 3.19625,6.22125 4.01625,14.34625 0,0 0.4925,5.08 0.65625,6.30875 0,0 0.20375,4.30625 1.9675,4.51 0,0 0.9,0.18375 1.3925,-0.655 0,0 0.57375,2.08875 2.21375,2.13 0,0 1.68,0.32875 2.8275,-2.58 0,0 1.93875,1.08875 2.91,-3.075 0,0 3.525,-13.89375 -0.9825,-24.1 0,0 -0.61625,-1.47375 -0.9025,-2.54 0,0 -0.86125,-2.4525 -0.6975,-5.16375 0,0 1.28625,-1.18375 3.15625,-2.46 0,0 3.35875,-2.11 2.46,-6.72125 0,0 -1.025,-5.45 -3.93625,-4.9175 0,0 -1.5975,0.20625 -2.4175,2.95125 0,0 -0.81875,2.4175 -1.51625,3.605 z" />
      <path
         id="path10204"
         style="fill:none;stroke:#231f20;stroke-width:1.25;stroke-linecap:butt;stroke-linejoin:miter;stroke-miterlimit:4;stroke-dasharray:none;stroke-opacity:1"
         d="m -512.79791,698.11783 c 0,0 3.60375,-5.70625 0.57375,-17.745" />
      <path
         id="path10208"
         style="fill:none;stroke:#231f20;stroke-width:1.25;stroke-linecap:butt;stroke-linejoin:miter;stroke-miterlimit:4;stroke-dasharray:none;stroke-opacity:1"
         d="m -507.75703,697.62707 c 0,0 2.65,-5.625 0.5325,-18.40375" />
      <path
         id="path10212"
         style="fill:#231f20;fill-opacity:1;fill-rule:nonzero;stroke:none"
         d="m -506.1744,677.8432 c -0.56875,1.29625 -4.17625,2.3175 -7.54125,2.3925 1.2625,0.49625 3.04625,0.2375 3.97375,0.035 2.05375,-0.445 3.65625,-0.89625 3.5675,-2.4275" />
      <path
         id="path10216"
         style="fill:#231f20;fill-opacity:1;fill-rule:nonzero;stroke:none"
         d="m -514.88778,666.3552 c 3.02,1.26125 4.1825,4.48625 3.31875,10.04125 -0.26375,-5.6125 -0.565,-7.33875 -3.31875,-10.04125" />
      <path
         id="path10220"
         style="fill:#231f20;fill-opacity:1;fill-rule:nonzero;stroke:none"
         d="m -507.60865,662.42445 c 0,0 -1.05,0.8225 -0.88625,2.08625 0,0 0.36875,-0.655 0.9025,-1.10625 0,0 0.31125,-0.98 -0.0163,-0.98" />
      <path
         id="path10224"
         style="fill:none;stroke:#231f20;stroke-width:1.25;stroke-linecap:butt;stroke-linejoin:miter;stroke-miterlimit:4;stroke-dasharray:none;stroke-opacity:1"
         d="m -569.11015,657.09245 10.82,7.295" />
      <path
         id="path10228"
         style="fill:none;stroke:#231f20;stroke-width:1.25;stroke-linecap:butt;stroke-linejoin:miter;stroke-miterlimit:4;stroke-dasharray:none;stroke-opacity:1"
         d="m -576.24153,664.96107 c 0,0 9.91875,2.70625 11.72125,3.115 0,0 -5.245,0.0825 -11.8025,-0.49125" />
      <path
         id="path10232"
         style="fill:#231f20;fill-opacity:1;fill-rule:nonzero;stroke:none"
         d="m -565.76478,668.54995 c 0,0 4.9725,0.0625 7.55625,-0.0637 0,0 -4.57,-0.735 -7.315,-1.02125 0,0 -0.56875,0.96 -0.24125,1.085" />
      <path
         id="path10236"
         style="fill:none;stroke:#231f20;stroke-width:1.25;stroke-linecap:butt;stroke-linejoin:miter;stroke-miterlimit:4;stroke-dasharray:none;stroke-opacity:1"
         d="m -574.23278,680.2077 c 0,0 -0.12375,3.075 -0.0412,3.93375" />
      <path
         id="path10240"
         style="fill:#231f20;fill-opacity:1;fill-rule:nonzero;stroke:none"
         d="m -559.00578,675.12095 c 0,0 1.8625,-1.22375 2.39625,-2.8225 0,0 -1.645,1.26625 -3.26875,2.01875 0,0 0.2575,0.7625 0.8725,0.80375" />
      <path
         id="path10244"
         style="fill:none;stroke:#231f20;stroke-width:1.25;stroke-linecap:butt;stroke-linejoin:miter;stroke-miterlimit:4;stroke-dasharray:none;stroke-opacity:1"
         d="m -543.24953,685.12595 c 0,0 -3.975,-5.28625 -4.95875,-8.52375 0,0 4.54875,5.615 8.68875,7.99125 0,0 8.32,-0.655 18.0325,-8.89375" />
      <path
         id="path10248"
         style="fill:none;stroke:#231f20;stroke-width:1.25;stroke-linecap:butt;stroke-linejoin:miter;stroke-miterlimit:4;stroke-dasharray:none;stroke-opacity:1"
         d="m -543.57728,685.20895 c 0,0 -14.26625,3.00125 -26.5975,-3.93375" />
      <path
         id="path10252"
         style="fill:#231f20;fill-opacity:1;fill-rule:nonzero;stroke:none"
         d="m -548.48578,677.27557 c 0,0 -0.61625,-1.62875 -0.61625,-2.44875 0,0 1.4575,1.64625 1.8675,2.22 0,0 -1.08875,0.515 -1.25125,0.22875" />
      <path
         id="path10256"
         style="fill:none;stroke:#231f20;stroke-width:1.25;stroke-linecap:butt;stroke-linejoin:miter;stroke-miterlimit:4;stroke-dasharray:none;stroke-opacity:1"
         d="m -539.51965,684.5937 c 0,0 -0.1225,2.09 -0.98375,4.22125" />
      <path
         id="path10260"
         style="fill:none;stroke:#231f20;stroke-width:1.25;stroke-linecap:butt;stroke-linejoin:miter;stroke-miterlimit:4;stroke-dasharray:none;stroke-opacity:1"
         d="m -521.32078,675.75945 c 0,0 -6.56625,-2.42 -19.51,-5.51125 0,0 10.7375,-0.0812 19.09875,1.31125" />
      <path
         id="path10264"
         style="fill:none;stroke:#231f20;stroke-width:1.25;stroke-linecap:butt;stroke-linejoin:miter;stroke-miterlimit:4;stroke-dasharray:none;stroke-opacity:1"
         d="m -530.68665,661.58457 c 0,0 -5.65,3.42625 -10.43125,4.85125" />
      <path
         id="path10268"
         style="fill:#231f20;fill-opacity:1;fill-rule:nonzero;stroke:none"
         d="m -531.72428,659.5937 c 0,0 -4.5575,3.40125 -6.15625,4.18 0,0 1.7625,-0.4925 6.80375,-3.44375 0,0 0.007,-0.655 -0.6475,-0.73625" />
      <path
         id="path10272"
         style="fill:#231f20;fill-opacity:1;fill-rule:nonzero;stroke:none"
         d="m -557.69228,707.31095 c 1.58375,-1.48 2.33375,-3.30375 1.67375,-4.075 -0.65875,-0.77125 -2.47625,-0.1975 -4.06,1.28 -1.5825,1.47875 -2.33125,3.3025 -1.6725,4.07375 0.6575,0.77125 2.47625,0.19875 4.05875,-1.27875" />
      <path
         id="path10276"
         style="fill:none;stroke:#231f20;stroke-width:1.25;stroke-linecap:butt;stroke-linejoin:miter;stroke-miterlimit:4;stroke-dasharray:none;stroke-opacity:1"
         d="m -557.69228,707.31095 c 1.58375,-1.48 2.33375,-3.30375 1.67375,-4.075 -0.65875,-0.77125 -2.47625,-0.1975 -4.06,1.28 -1.5825,1.47875 -2.33125,3.3025 -1.6725,4.07375 0.6575,0.77125 2.47625,0.19875 4.05875,-1.27875 z" />
      <path
         id="path10280"
         style="fill:none;stroke:#231f20;stroke-width:1.25;stroke-linecap:butt;stroke-linejoin:miter;stroke-miterlimit:4;stroke-dasharray:none;stroke-opacity:1"
         d="m -564.88891,700.8632 c 0,0 2.1725,0.24625 3.52375,1.8025" />
      <path
         id="path10284"
         style="fill:none;stroke:#231f20;stroke-width:1.25;stroke-linecap:butt;stroke-linejoin:miter;stroke-miterlimit:4;stroke-dasharray:none;stroke-opacity:1"
         d="m -574.9299,702.38058 c 0,0 4.6725,1.10625 6.80375,3.6475" />
      <path
         id="path10288"
         style="fill:none;stroke:#231f20;stroke-width:1.25;stroke-linecap:butt;stroke-linejoin:miter;stroke-miterlimit:4;stroke-dasharray:none;stroke-opacity:1"
         d="m -589.51965,705.61783 c 0,0 9.2625,0.245 13.81125,4.38625" />
      <path
         id="path10292"
         style="fill:none;stroke:#231f20;stroke-width:1.25;stroke-linecap:butt;stroke-linejoin:miter;stroke-miterlimit:4;stroke-dasharray:none;stroke-opacity:1"
         d="m -599.0699,713.4462 c 0,0 8.8125,-0.36875 16.23,3.1975" />
      <path
         id="path10296"
         style="fill:#231f20;fill-opacity:1;fill-rule:nonzero;stroke:none"
         d="m -540.46203,707.94083 c 1.4425,1.50125 3.0825,2.1825 3.66375,1.52375 0.58,-0.66 -0.11875,-2.41125 -1.56125,-3.91375 -1.4425,-1.50125 -3.0825,-2.18375 -3.66375,-1.525 -0.58,0.66 0.11875,2.4125 1.56125,3.915" />
      <path
         id="path10300"
         style="fill:none;stroke:#231f20;stroke-width:1.25;stroke-linecap:butt;stroke-linejoin:miter;stroke-miterlimit:4;stroke-dasharray:none;stroke-opacity:1"
         d="m -540.46203,707.94083 c 1.4425,1.50125 3.0825,2.1825 3.66375,1.52375 0.58,-0.66 -0.11875,-2.41125 -1.56125,-3.91375 -1.4425,-1.50125 -3.0825,-2.18375 -3.66375,-1.525 -0.58,0.66 0.11875,2.4125 1.56125,3.915 z" />
      <path
         id="path10304"
         style="fill:none;stroke:#231f20;stroke-width:1.25;stroke-linecap:butt;stroke-linejoin:miter;stroke-miterlimit:4;stroke-dasharray:none;stroke-opacity:1"
         d="m -532.1839,700.33095 c 0,0 -2.8275,0.45125 -5.45,2.705" />
      <path
         id="path10308"
         style="fill:none;stroke:#231f20;stroke-width:1.25;stroke-linecap:butt;stroke-linejoin:miter;stroke-miterlimit:4;stroke-dasharray:none;stroke-opacity:1"
         d="m -519.02715,700.78257 c 0,0 -7.05,1.02375 -11.3125,4.795" />
      <path
         id="path10312"
         style="fill:none;stroke:#231f20;stroke-width:1.25;stroke-linecap:butt;stroke-linejoin:miter;stroke-miterlimit:4;stroke-dasharray:none;stroke-opacity:1"
         d="m -503.49428,703.65008 c 0,0 -8.73,0.575 -15.12375,5.45125" />
      <path
         id="path10316"
         style="fill:none;stroke:#231f20;stroke-width:1.25;stroke-linecap:butt;stroke-linejoin:miter;stroke-miterlimit:4;stroke-dasharray:none;stroke-opacity:1"
         d="m -494.76503,708.77332 c 0,0 -8.77,-0.4925 -14.83625,6.18875" />
      <path
         id="path10320"
         style="fill:#231f20;fill-opacity:1;fill-rule:nonzero;stroke:none"
         d="m -542.85953,684.8402 c 0,0 -0.04,1.1475 -0.04,1.64 0,0.49 -0.73875,-0.9425 -0.82,-1.39375 0,0 0.57375,-0.2875 0.86,-0.24625" />
      <path
         id="path10324"
         style="fill:none;stroke:#231f20;stroke-width:1.25;stroke-linecap:butt;stroke-linejoin:miter;stroke-miterlimit:4;stroke-dasharray:none;stroke-opacity:1"
         d="m -555.6604,565.51157 c -1.77,-3.42625 -0.96625,-7.98 4.51125,-7.48 5.025,0.4575 4.2675,4.09875 3.81125,7.58375 0,0 -2.785,-0.495 -8.3225,-0.10375 z" />
      <path
         id="path10328"
         style="fill:none;stroke:#231f20;stroke-width:1.25;stroke-linecap:butt;stroke-linejoin:miter;stroke-miterlimit:4;stroke-dasharray:none;stroke-opacity:1"
         d="m -570.17515,682.42207 c 0,0 0.04,-0.4925 0,-1.1475 0,0 7.705,-3.73 11.39375,-6.92625 0,0 -9.55,4.17875 -15.45125,5.86 0,0 -2.69,-1.645 -4.2475,-4.71875" />
      <path
         id="path10332"
         style="fill:#ffffff;fill-opacity:1;fill-rule:nonzero;stroke:none"
         d="m -578.8239,661.19033 c 0,0 -1.5975,-1.3525 -6.92625,-0.7775 0,0 -2.9175,0.47125 -4.385,-1.3525 0,0 -1.2775,-1.38375 -2.04875,-3.525 0,0 -1.32625,-3.92875 -3.71625,-3.7475 0,0 -4.51875,0.29 -3.9475,5.79625 0,0 0.49125,4.59 4.8775,5.98375 0,0 0.86,0.24625 1.515,0.40875 0,0 1.59875,0.16375 1.31125,4.26375 0,0 -0.04,2.6225 -0.82,7.21375 0,0 -0.9825,5.41 -0.40875,10.81875 0,0 0.655,7.66375 2.705,11.23125 0,0 1.065,2.41625 3.6075,1.68 0,0 1.08125,1.565 2.4575,1.39375 0,0 1.19375,-0.025 1.9675,-1.3525 0,0 0.4925,0.61375 1.3525,0.57375 0,0 2.14125,0.2725 1.7625,-7.13125 0,0 -0.0825,-6.80375 0.24625,-10.65625 0,0 0.57375,-6.18875 1.96625,-10.0825 0,0 3.115,-8.23875 -1.51625,-10.73875" />
      <path
         id="path10336"
         style="fill:none;stroke:#231f20;stroke-width:1.25;stroke-linecap:butt;stroke-linejoin:miter;stroke-miterlimit:4;stroke-dasharray:none;stroke-opacity:1"
         d="m -578.8239,661.19033 c 0,0 -1.5975,-1.3525 -6.92625,-0.7775 0,0 -2.9175,0.47125 -4.385,-1.3525 0,0 -1.2775,-1.38375 -2.04875,-3.525 0,0 -1.32625,-3.92875 -3.71625,-3.7475 0,0 -4.51875,0.29 -3.9475,5.79625 0,0 0.49125,4.59 4.8775,5.98375 0,0 0.86,0.24625 1.515,0.40875 0,0 1.59875,0.16375 1.31125,4.26375 0,0 -0.04,2.6225 -0.82,7.21375 0,0 -0.9825,5.41 -0.40875,10.81875 0,0 0.655,7.66375 2.705,11.23125 0,0 1.065,2.41625 3.6075,1.68 0,0 1.08125,1.565 2.4575,1.39375 0,0 1.19375,-0.025 1.9675,-1.3525 0,0 0.4925,0.61375 1.3525,0.57375 0,0 2.14125,0.2725 1.7625,-7.13125 0,0 -0.0825,-6.80375 0.24625,-10.65625 0,0 0.57375,-6.18875 1.96625,-10.0825 0,0 3.115,-8.23875 -1.51625,-10.73875 z" />
      <path
         id="path10340"
         style="fill:none;stroke:#231f20;stroke-width:1.25;stroke-linecap:butt;stroke-linejoin:miter;stroke-miterlimit:4;stroke-dasharray:none;stroke-opacity:1"
         d="m -587.06053,699.18345 c 0,0 -3.77125,-4.59125 -2.13125,-19.30375 0,0 2.295,0.3275 3.68875,0.24625 0,0 -1.11,14.3075 2.86625,19.10375" />
      <path
         id="path10344"
         style="fill:#231f20;fill-opacity:1;fill-rule:nonzero;stroke:none"
         d="m -588.91478,679.55457 c 0,0 -0.86,-0.0813 -1.92625,-0.37 0,0 0.15875,0.7075 1.7575,0.99375 l 0.16875,-0.62375 z" />
      <path
         id="path10348"
         style="fill:#231f20;fill-opacity:1;fill-rule:nonzero;stroke:none"
         d="m -585.7379,679.7987 c 0,0 1.64625,-0.145 2.4225,-0.22875 0,0 -0.30125,0.7525 -2.30375,0.89875 -0.0412,0.004 -0.36375,-0.6575 -0.11875,-0.67" />
      <path
         id="path10352"
         style="fill:#231f20;fill-opacity:1;fill-rule:nonzero;stroke:none"
         d="m -581.97878,663.23995 c -2.54,2.375 -3.23125,5.4875 -2.705,10.04125 -1.2975,-3.65875 -0.80625,-8.1075 2.705,-10.04125" />
      <path
         id="path10356"
         style="fill:#231f20;fill-opacity:1;fill-rule:nonzero;stroke:none"
         d="m -540.75265,670.75457 -1.08125,-0.21125 -0.26,-0.7875 1.66,0.0163 -0.31875,0.9825 z" />
      <path
         id="path10360"
         style="fill:#231f20;fill-opacity:1;fill-rule:nonzero;stroke:none"
         d="m -544.95853,612.76745 c 0.7975,0.0375 1.5125,-1.37625 1.59875,-3.15625 0.0875,-1.78125 -0.48875,-3.2575 -1.28625,-3.295 -0.7975,-0.04 -1.51375,1.3725 -1.6,3.15375 -0.0862,1.7825 0.49,3.25875 1.2875,3.2975" />
      <path
         id="path10364"
         style="fill:none;stroke:#231f20;stroke-width:1.25;stroke-linecap:butt;stroke-linejoin:miter;stroke-miterlimit:4;stroke-dasharray:none;stroke-opacity:1"
         d="m -544.95853,612.76745 c 0.7975,0.0375 1.5125,-1.37625 1.59875,-3.15625 0.0875,-1.78125 -0.48875,-3.2575 -1.28625,-3.295 -0.7975,-0.04 -1.51375,1.3725 -1.6,3.15375 -0.0862,1.7825 0.49,3.25875 1.2875,3.2975 z" />
      <path
         id="path10368"
         style="fill:#231f20;fill-opacity:1;fill-rule:nonzero;stroke:none"
         d="m -555.2369,612.82732 c 0.7975,0.0388 1.5125,-1.375 1.6,-3.15625 0.0862,-1.78125 -0.49,-3.25875 -1.2875,-3.295 -0.7975,-0.04 -1.5125,1.3725 -1.6,3.15375 -0.0862,1.78375 0.49125,3.26 1.2875,3.2975" />
      <path
         id="path10372"
         style="fill:none;stroke:#231f20;stroke-width:1.25;stroke-linecap:butt;stroke-linejoin:miter;stroke-miterlimit:4;stroke-dasharray:none;stroke-opacity:1"
         d="m -555.2369,612.82732 c 0.7975,0.0388 1.5125,-1.375 1.6,-3.15625 0.0862,-1.78125 -0.49,-3.25875 -1.2875,-3.295 -0.7975,-0.04 -1.5125,1.3725 -1.6,3.15375 -0.0862,1.78375 0.49125,3.26 1.2875,3.2975 z" />
    </g>
  </g>
</svg>
